<svg xmlns="http://www.w3.org/2000/svg" width="13" height="11.766" viewBox="0 0 13 11.766">
  <path id="heart" d="M8-10.768a.429.429,0,0,0,.135-.024.37.37,0,0,0,.128-.073,25.654,25.654,0,0,0,3.214-2.493A12.036,12.036,0,0,0,13.69-16a5.277,5.277,0,0,0,.808-2.732,4.192,4.192,0,0,0-.27-1.529,3.634,3.634,0,0,0-.756-1.206,3.374,3.374,0,0,0-1.141-.787,3.618,3.618,0,0,0-1.425-.277,3.255,3.255,0,0,0-1.706.489A3,3,0,0,0,8-20.724a3.088,3.088,0,0,0-1.21-1.321,3.237,3.237,0,0,0-1.7-.489,3.618,3.618,0,0,0-1.425.277,3.374,3.374,0,0,0-1.141.787,3.634,3.634,0,0,0-.756,1.206,4.192,4.192,0,0,0-.27,1.529A5.277,5.277,0,0,0,2.305-16a12.036,12.036,0,0,0,2.212,2.645,25.9,25.9,0,0,0,3.207,2.493.452.452,0,0,0,.135.073A.448.448,0,0,0,8-10.768Z" transform="translate(-1.498 22.534)" fill="#0d0d0d"/>
</svg>
