<svg id="logout" xmlns="http://www.w3.org/2000/svg" width="13" height="13" viewBox="0 0 13 13">
  <path id="Path_2655" data-name="Path 2655" d="M8.125,13H.542A.512.512,0,0,1,0,12.458V.542A.512.512,0,0,1,.542,0H8.125a.512.512,0,0,1,.542.542V4.333a.542.542,0,0,1-1.083,0V1.083h-6.5V11.917h6.5V8.667a.542.542,0,0,1,1.083,0v3.792A.512.512,0,0,1,8.125,13Z" fill="#ff3b30"/>
  <path id="Path_2656" data-name="Path 2656" d="M12.458,7.042H4.333a.542.542,0,1,1,0-1.083h8.125a.542.542,0,0,1,0,1.083Z" fill="#ff3b30"/>
  <path id="Path_2657" data-name="Path 2657" d="M12.458,7.042a.492.492,0,0,1-.379-.163L9.913,4.713a.536.536,0,1,1,.758-.758l2.167,2.167a.524.524,0,0,1,0,.758.492.492,0,0,1-.379.163Z" fill="#ff3b30"/>
  <path id="Path_2658" data-name="Path 2658" d="M10.292,9.208a.492.492,0,0,1-.379-.163.524.524,0,0,1,0-.758l2.167-2.167a.536.536,0,1,1,.758.758L10.671,9.046a.492.492,0,0,1-.379.163Z" fill="#ff3b30"/>
</svg>
