<svg xmlns="http://www.w3.org/2000/svg" width="12.288" height="13" viewBox="0 0 12.288 13">
  <path id="person" d="M2.99-11.709H13.082a1.494,1.494,0,0,0,.809-.186.723.723,0,0,0,.289-.66,3.118,3.118,0,0,0-.423-1.484A5.2,5.2,0,0,0,12.532-15.5a6.507,6.507,0,0,0-1.94-1.113,7.187,7.187,0,0,0-2.556-.43,7.187,7.187,0,0,0-2.556.43A6.507,6.507,0,0,0,3.539-15.5a5.2,5.2,0,0,0-1.224,1.462,3.118,3.118,0,0,0-.423,1.484.723.723,0,0,0,.289.66,1.494,1.494,0,0,0,.809.186Zm5.068-6.671A2.608,2.608,0,0,0,9.52-18.8a3.007,3.007,0,0,0,1.024-1.146,3.444,3.444,0,0,0,.378-1.621,3.259,3.259,0,0,0-.382-1.566,3.108,3.108,0,0,0-1.031-1.143,2.568,2.568,0,0,0-1.451-.43,2.6,2.6,0,0,0-1.458.43,3.085,3.085,0,0,0-1.039,1.143,3.183,3.183,0,0,0-.375,1.558,3.46,3.46,0,0,0,.378,1.629A3,3,0,0,0,6.593-18.8a2.626,2.626,0,0,0,1.465.423Z" transform="translate(-1.892 24.709)" fill="#0d0d0d"/>
</svg>
