<svg xmlns="http://www.w3.org/2000/svg" width="12.999" height="13" viewBox="0 0 12.999 13">
  <g id="settings" transform="translate(0 0)">
    <path id="Path_2654" data-name="Path 2654" d="M51.133,165.532a2.167,2.167,0,1,1,2.149-2.167,2.157,2.157,0,0,1-2.149,2.167Zm6.07-.634-1.007-.586a4.831,4.831,0,0,0,0-1.893l1.007-.586a.87.87,0,0,0,.314-1.184l-.859-1.5a.855.855,0,0,0-1.174-.317l-1.017.591a5.151,5.151,0,0,0-1.615-.955v-.735a.863.863,0,0,0-.86-.867H50.274a.863.863,0,0,0-.86.867v.735a5.151,5.151,0,0,0-1.615.955l-1.017-.591a.855.855,0,0,0-1.174.317l-.859,1.5a.871.871,0,0,0,.314,1.184l1.007.586a4.831,4.831,0,0,0,0,1.893l-1.007.586a.871.871,0,0,0-.314,1.184l.859,1.5a.855.855,0,0,0,1.174.317l1.017-.591a5.143,5.143,0,0,0,1.615.955V169a.863.863,0,0,0,.86.867h1.719a.863.863,0,0,0,.86-.867v-.735a5.143,5.143,0,0,0,1.615-.955l1.017.591a.855.855,0,0,0,1.174-.317l.859-1.5A.87.87,0,0,0,57.2,164.9Zm-6.07-2.832a1.3,1.3,0,1,0,1.289,1.3,1.295,1.295,0,0,0-1.289-1.3Z" transform="translate(-44.633 -156.865)" fill="#0d0d0d" fill-rule="evenodd"/>
  </g>
</svg>
