<svg xmlns="http://www.w3.org/2000/svg" xmlns:xlink="http://www.w3.org/1999/xlink" width="63.515" height="64.03" viewBox="0 0 63.515 64.03">
  <defs>
    <clipPath id="clip-path">
      <path id="Path_2567" data-name="Path 2567" d="M366.52-183.94h0a1.23,1.23,0,0,0-.9.346,1.23,1.23,0,0,0-.374.884v41.27h0a12.386,12.386,0,0,0,.21,1.49c.12.58.37,1.78.37,1.78h0l.42,2a.25.25,0,0,0,.245.2.25.25,0,0,0,.245-.2l.42-2h0s.25-1.2.37-1.78a12.587,12.587,0,0,0,.21-1.5h0v-41.26A1.23,1.23,0,0,0,366.52-183.94Z" transform="translate(-365.25 183.941)" fill="none"/>
    </clipPath>
    <clipPath id="clip-path-2">
      <path id="Path_2566" data-name="Path 2566" d="M-1106,2212H814V-593H-1106Z" transform="translate(1106 593)" fill="none"/>
    </clipPath>
    <clipPath id="clip-path-3">
      <path id="Path_2561" data-name="Path 2561" d="M394.5-184c-11.965,0-16.5,9.321-16.5,18.255v9.39a.863.863,0,0,0,.855.866.837.837,0,0,0,.6-.257.838.838,0,0,0,.233-.609v-9.39c0-8.125,3.988-16.523,14.814-16.523m0,0c10.825,0,14.814,8.4,14.814,16.523v9.355a.837.837,0,0,0,.233.609.837.837,0,0,0,.6.257.856.856,0,0,0,.607-.255.856.856,0,0,0,.246-.611v-9.355c0-8.922-4.535-18.255-16.5-18.255m-10.233,17.081a3.415,3.415,0,0,1,2.419,1,3.414,3.414,0,0,1,1,2.419v7.977a3.419,3.419,0,0,1-1.692,3.01,3.419,3.419,0,0,1-3.453,0,3.419,3.419,0,0,1-1.692-3.01V-163.5a3.414,3.414,0,0,1,1-2.419,3.414,3.414,0,0,1,2.418-1Zm20.488,0a3.415,3.415,0,0,1,2.419,1,3.415,3.415,0,0,1,1,2.419v7.977a3.419,3.419,0,0,1-1.692,3.01,3.419,3.419,0,0,1-3.453,0,3.419,3.419,0,0,1-1.692-3.01V-163.5a3.414,3.414,0,0,1,1-2.419,3.414,3.414,0,0,1,2.419-1Z" transform="translate(-378 184)" fill="none"/>
    </clipPath>
    <clipPath id="clip-path-5">
      <path id="Path_2564" data-name="Path 2564" d="M419.86-126.86l.45-.21a.25.25,0,0,0,.12-.33L414-141.08a.25.25,0,0,0-.33-.12l-.45.21a.25.25,0,0,0-.12.33L419.52-127a.25.25,0,0,0,.135.14.25.25,0,0,0,.195,0Zm9.53-46-.75-.38h0l-1.35-.76a.25.25,0,0,0-.193-.016.25.25,0,0,0-.147.126L404-128.87a.25.25,0,0,0-.017.193.25.25,0,0,0,.126.147l1.34.68a.25.25,0,0,0,.193.016.25.25,0,0,0,.147-.126l7.6-14.92.54.27a.25.25,0,0,0,.193.016.25.25,0,0,0,.147-.126l15.22-29.85a.25.25,0,0,0-.11-.33ZM416.75-128h-20.5a.25.25,0,0,0-.25.25v.25h-2v-.5h-4v.5h-1v-.5h-4v.5h-1v-.5h-4v.5h-1v-.5h-4v.5h-1v-.5h-4v.5h-2.75a.25.25,0,0,0-.25.25h-1v.25h1v.75a.25.25,0,0,0,.25.25h49.5a.25.25,0,0,0,.25-.25v-1.5A.25.25,0,0,0,416.75-128Zm3.42,1.86c.47-.47-.19-1.3-.21-1.33l-.2.16s.54.69.23,1-1.22-.23-1.81-.5a3.592,3.592,0,0,0-1-.37h-1.4v.25h1.37a4.178,4.178,0,0,1,.94.35,5.269,5.269,0,0,0,1.71.58A.5.5,0,0,0,420.17-126.14Z" transform="translate(-366 174.029)" fill="none"/>
    </clipPath>
  </defs>
  <g id="Group_4597" data-name="Group 4597" transform="translate(-335 -178)">
    <g id="Group_3552" data-name="Group 3552" transform="translate(363.25 194.059)" clip-path="url(#clip-path)">
      <g id="Group_3551" data-name="Group 3551" transform="translate(-1471.25 -409.059)" clip-path="url(#clip-path-2)">
        <path id="Path_2565" data-name="Path 2565" d="M360.25-188.941h12.49v57.971H360.25Z" transform="translate(1106 593)" fill="#1d1d1e"/>
      </g>
    </g>
    <g id="Group_3548" data-name="Group 3548" transform="translate(347 178)" clip-path="url(#clip-path-3)">
      <g id="Group_3547" data-name="Group 3547" transform="translate(-1484 -409)" clip-path="url(#clip-path-2)">
        <path id="Path_2559" data-name="Path 2559" d="M373-189h43v41.954H373Z" transform="translate(1106 593)" fill="#333"/>
      </g>
    </g>
    <g id="Group_3550" data-name="Group 3550" transform="translate(335 187.971)" clip-path="url(#clip-path-5)">
      <g id="Group_3549" data-name="Group 3549" transform="translate(-1472 -418.971)" clip-path="url(#clip-path-2)">
        <path id="Path_2562" data-name="Path 2562" d="M361-179.029h73.515V-121H361Z" transform="translate(1106 593)" fill="#1d1d1e"/>
      </g>
    </g>
  </g>
</svg>
