<svg xmlns="http://www.w3.org/2000/svg" width="23.001" height="42.014" viewBox="0 0 23.001 42.014">
  <path id="Apple_Watch" data-name="Apple Watch" d="M24,28V23H23V21.33a4.27,4.27,0,0,0-.59-2.16c-.4-.68-1.11-1.26-1.54-1.93a9.64,9.64,0,0,1-1.31-3c-.27-1.15-.19-2.34-.42-3.5a1.77,1.77,0,0,0-1.68-1.4c-.93-.13-1.87-.2-2.81-.26S12.68,9,11.7,9a28.24,28.24,0,0,0-5.59.43A1.53,1.53,0,0,0,5,10.57c-.11.54-.2,1.86-.3,2.63a7.49,7.49,0,0,1-1.88,4.44l-.46.51A4.46,4.46,0,0,0,1,21.33V38.67a4.22,4.22,0,0,0,1.39,3.21A5.82,5.82,0,0,1,4.64,46c.18,1.16.05,2.33.28,3.46a1.63,1.63,0,0,0,1.26,1.11,33.669,33.669,0,0,0,6.07.43,28.24,28.24,0,0,0,5.59-.43A1.53,1.53,0,0,0,19,49.43c.11-.54-.14-3.17.79-4.76.33-.56,1.74-2.67,1.74-2.67s.16-.22.2-.26A4.52,4.52,0,0,0,23,38.67V28ZM22,38.67A3.21,3.21,0,0,1,19,42H5a3.2,3.2,0,0,1-3-3.33V21.33A3.21,3.21,0,0,1,5,18H19a3.21,3.21,0,0,1,3,3.33Z" transform="translate(-0.999 -8.993)"/>
</svg>
