<svg xmlns="http://www.w3.org/2000/svg" width="44.874" height="44.866" viewBox="0 0 44.874 44.866">
  <path id="Path_2576" data-name="Path 2576" d="M44.877,32.035V30.427c0-.452-.008-.9-.02-1.353a19.682,19.682,0,0,0-.259-2.945,9.943,9.943,0,0,0-.923-2.8A9.424,9.424,0,0,0,39.548,19.2a9.949,9.949,0,0,0-2.8-.923,19.681,19.681,0,0,0-2.945-.259c-.452-.013-.9-.018-1.355-.02H12.427c-.452,0-.9.008-1.353.02a19.681,19.681,0,0,0-2.945.259,9.943,9.943,0,0,0-2.8.923A9.424,9.424,0,0,0,1.2,23.328a9.949,9.949,0,0,0-.923,2.8,19.679,19.679,0,0,0-.259,2.945c-.013.452-.018.9-.02,1.355V50.526c0,.421.008.85.02,1.276a19.679,19.679,0,0,0,.257,2.941,9.943,9.943,0,0,0,.923,2.8,9.425,9.425,0,0,0,4.126,4.119,9.957,9.957,0,0,0,2.8.923,19.68,19.68,0,0,0,2.945.259c.452.013.9.018,1.355.02H32.456c.452,0,.9-.008,1.353-.02a19.679,19.679,0,0,0,2.945-.259,9.943,9.943,0,0,0,2.8-.923,9.425,9.425,0,0,0,4.112-4.119,9.957,9.957,0,0,0,.923-2.8,19.681,19.681,0,0,0,.259-2.945c.013-.452.018-.9.02-1.355V48.835Zm-31.052.525a3.606,3.606,0,0,1,2.384-1.237,3.635,3.635,0,0,1-.841,2.592,3.01,3.01,0,0,1-2.411,1.136,3.405,3.405,0,0,1,.868-2.491Zm4.645,12.928c-.676.994-1.372,1.963-2.484,1.989-1.073.02-1.431-.637-2.665-.637s-1.63.617-2.644.656c-1.073.039-1.888-1.055-2.562-2.048C6.725,43.439,5.672,39.782,7.1,37.313a3.927,3.927,0,0,1,3.338-2.028c1.053-.02,2.027.7,2.665.7s1.768-.841,3.1-.756a3.808,3.808,0,0,1,2.961,1.61,3.68,3.68,0,0,0-1.749,3.085,3.61,3.61,0,0,0,2.165,3.28,8.836,8.836,0,0,1-1.111,2.28Zm8.385-7.66H24.682v6.352c0,.982.432,1.436,1.383,1.436a7.258,7.258,0,0,0,.778-.055v1.794a7.485,7.485,0,0,1-1.286.1c-2.244,0-3.119-.861-3.119-3.043V37.828H20.775V36.046h1.663v-2.7h2.244v2.7h2.174Zm7.6,9.537H32.072L28.061,36.046h2.372l2.813,9.095H33.3l2.813-9.095h2.331Z" transform="translate(-0.003 -18.003)" fill="#333"/>
</svg>
