<svg xmlns="http://www.w3.org/2000/svg" xmlns:xlink="http://www.w3.org/1999/xlink" width="70" height="40.001" viewBox="0 0 70 40.001">
  <defs>
    <clipPath id="clip-path">
      <path id="Path_2547" data-name="Path 2547" d="M80-137v-20.5a1.351,1.351,0,0,0-1.5-1.5h-35a1.334,1.334,0,0,0-1.5,1.5V-137H38c.05.09.13.32.21.32a11.463,11.463,0,0,0,4.64,1.42c2.57.18,5.14.27,5.15.26H74s2.36-.08,4.93-.25a11.463,11.463,0,0,0,4.64-1.42,1.18,1.18,0,0,0,.44-.32H80ZM44-157H78v20H44Zm46.95,22h0c.02-.01.03-.01.04-.02a.333.333,0,0,0,.24-.32.34.34,0,0,0-.35-.34h-.07a2.811,2.811,0,0,1-2.93-2.19L87-142h19.47a1.762,1.762,0,0,0,1.53-1.53v-29.94a1.762,1.762,0,0,0-1.53-1.53H61.53A1.762,1.762,0,0,0,60-173.47L60.02-160H62v-13h44v25H81v10h4v1c-.04,1.54-3,2-3,2Zm-6-9.17c-.03.06-.06.12-.09.17a1.7,1.7,0,0,1-.1.14.294.294,0,0,1-.08.08.672.672,0,0,1-.11.07.2.2,0,0,1-.11.03.371.371,0,0,1-.09-.02l-.11-.03a.358.358,0,0,1-.11-.04.375.375,0,0,0-.1-.01.234.234,0,0,0-.11.02.563.563,0,0,0-.12.04.358.358,0,0,0-.11.04.309.309,0,0,1-.08.02.292.292,0,0,1-.09-.02.406.406,0,0,1-.09-.05.932.932,0,0,1-.1-.1c-.04-.04-.07-.09-.12-.15s-.07-.12-.11-.19a1.426,1.426,0,0,1-.08-.22,1.741,1.741,0,0,1-.05-.22,1.8,1.8,0,0,1-.02-.22.943.943,0,0,1,.05-.3.921.921,0,0,1,.13-.24.615.615,0,0,1,.2-.16.542.542,0,0,1,.25-.06.561.561,0,0,1,.23.06.589.589,0,0,0,.18.06.392.392,0,0,0,.06-.02c.03-.01.08-.03.14-.05s.1-.03.14-.04a.41.41,0,0,1,.11-.01.555.555,0,0,1,.28.07.553.553,0,0,1,.21.19.7.7,0,0,0-.21.21.609.609,0,0,0-.06.28.586.586,0,0,0,.09.31.577.577,0,0,0,.25.21A.529.529,0,0,0,84.95-144.17ZM84-145.69a.464.464,0,0,1,.04-.19.619.619,0,0,1,.11-.17.481.481,0,0,1,.16-.12.449.449,0,0,1,.19-.05v.06a.509.509,0,0,1-.04.2.619.619,0,0,1-.11.17.443.443,0,0,1-.15.12.369.369,0,0,1-.17.05c-.02,0-.04,0-.04-.01A.176.176,0,0,0,84-145.69Z" transform="translate(-38 175)" fill="none"/>
    </clipPath>
    <clipPath id="clip-path-2">
      <path id="Path_2546" data-name="Path 2546" d="M-1106,2212H814V-593H-1106Z" transform="translate(1106 593)" fill="none"/>
    </clipPath>
  </defs>
  <g id="Group_3536" data-name="Group 3536" clip-path="url(#clip-path)">
    <g id="Group_3535" data-name="Group 3535" transform="translate(-1144 -418)" clip-path="url(#clip-path-2)">
      <path id="Path_2545" data-name="Path 2545" d="M33-180h80v50H33Z" transform="translate(1106 593)" fill="#333"/>
    </g>
  </g>
</svg>
