<svg xmlns="http://www.w3.org/2000/svg" width="47" height="48" viewBox="0 0 47 48">
  <defs>
    <style>
      .cls-1 {
        fill: #1d1d1f;
        fill-rule: evenodd;
      }
    </style>
  </defs>
  <g id="Ipad" transform="translate(-50 -33)">
    <path id="Path_12" data-name="Path 12" class="cls-1" d="M34.69,8H7.36A1.51,1.51,0,0,0,6,9.51V19H8V12H34V47H23v2.74A2.21,2.21,0,0,1,22.6,51H34.69A1.3,1.3,0,0,0,36,49.68V9.51A1.47,1.47,0,0,0,34.69,8ZM21,10.74a.66.66,0,1,1,.66-.66.66.66,0,0,1-.66.66Z" transform="translate(50 30)"/>
    <path id="Path_13" data-name="Path 13" class="cls-1" d="M15,7V6a1,1,0,0,1,1-1H44a1,1,0,0,1,1,1V48a1,1,0,0,1-1,1H37v.79A1.3,1.3,0,0,1,36.28,51H44a3,3,0,0,0,3-3V6a3,3,0,0,0-3-3H16a3,3,0,0,0-3,3V7Z" transform="translate(50 30)"/>
    <path id="iPad_Mini_4" data-name="iPad Mini 4" class="cls-1" d="M20.74,20H1.27A1.3,1.3,0,0,0,0,21.26V49.8A1.26,1.26,0,0,0,1.27,51H20.74A1.31,1.31,0,0,0,22,49.74V21.26A1.3,1.3,0,0,0,20.74,20Zm-9.79,1.25a.425.425,0,1,1-.01,0ZM11,50.5a1,1,0,1,1,1-1A1,1,0,0,1,11,50.5ZM21,48H1V23H21Z" transform="translate(50 30)"/>
  </g>
</svg>
