<svg id="Light" xmlns="http://www.w3.org/2000/svg" width="50" height="46" viewBox="0 0 50 46">
  <path id="Path_15" data-name="Path 15" d="M36,12.19A3.2,3.2,0,0,0,32.81,9H23v3h6a1,1,0,0,0,1-1v-.5a.5.5,0,0,1,.5-.5h2.31A2.19,2.19,0,0,1,35,12.19V47.81A2.19,2.19,0,0,1,32.81,50H22.44a4,4,0,0,1-.83,1h11.2A3.2,3.2,0,0,0,36,47.81Zm-9.75-1.47h-2a.25.25,0,0,1,0-.5h2a.25.25,0,0,1,0,.5Zm1.08.08a.33.33,0,1,1,.33-.33.33.33,0,0,1-.33.33ZM47,11H37v5H49V46H37v2a4,4,0,0,1-1.38,3H47a3,3,0,0,0,3-3V14a3,3,0,0,0-3-3Zm-4.25,2.75h-4.5a.25.25,0,0,1,0-.5h4.5a.25.25,0,0,1,0,.5ZM40.5,50.25a1.75,1.75,0,1,1,1.75-1.75A1.75,1.75,0,0,1,40.5,50.25ZM22,8a3,3,0,0,0-3-3H3A3,3,0,0,0,0,8V48a3,3,0,0,0,3,3H19a3,3,0,0,0,3-3ZM13.33,6.15a.33.33,0,1,1-.33.33.33.33,0,0,1,.33-.33Zm-3.08.08h2a.25.25,0,0,1,0,.5h-2a.25.25,0,0,1,0-.5ZM21,48a2,2,0,0,1-2,2H3a2,2,0,0,1-2-2V8A2,2,0,0,1,3,6H5.5a.5.5,0,0,1,.5.5V7A1,1,0,0,0,7,8h8a1,1,0,0,0,1-1V6.5a.5.5,0,0,1,.5-.5H19a2,2,0,0,1,2,2Zm19.5-.62a1.12,1.12,0,1,0,1.12,1.13,1.12,1.12,0,0,0-1.12-1.13Z" transform="translate(0 -5)" fill="#1d1d1f"/>
</svg>
