<svg xmlns="http://www.w3.org/2000/svg" width="18.75" height="83.681" viewBox="0 0 18.75 83.681">
  <path id="chevron.compact.right" d="M22.02,14.934l-16.13-39.3a9.321,9.321,0,0,1-.283-.9,3.4,3.4,0,0,1-.128-.848,3.852,3.852,0,0,1,.128-.925,8.55,8.55,0,0,1,.283-.925L22.02-67.206a1.073,1.073,0,0,1,.514-.642,1.4,1.4,0,0,1,.514-.128,1.148,1.148,0,0,1,.848.334,1.215,1.215,0,0,1,.334.9,2.05,2.05,0,0,1-.077.539q-.077.283-.18.591L7.585-25.545v-1.233L23.972,13.29q.1.308.18.616a2.345,2.345,0,0,1,.077.565,1.237,1.237,0,0,1-.334.873,1.106,1.106,0,0,1-.848.36,1.212,1.212,0,0,1-.514-.154,1.188,1.188,0,0,1-.514-.616Z" transform="translate(-5.479 67.977)" fill="#c7c7cc"/>
</svg>
